<svg width="382" height="83" viewBox="0 0 382 83" fill="none" xmlns="http://www.w3.org/2000/svg">
<path d="M305 46.1818V51.8636H290.625V46.1818H305ZM293.409 40.9545H301.25V60.983C301.25 61.286 301.302 61.5417 301.406 61.75C301.51 61.9489 301.671 62.1004 301.889 62.2045C302.107 62.2992 302.386 62.3466 302.727 62.3466C302.964 62.3466 303.239 62.3182 303.551 62.2614C303.873 62.2045 304.11 62.1572 304.261 62.1193L305.398 67.6307C305.047 67.7348 304.545 67.8627 303.892 68.0142C303.248 68.1657 302.481 68.2652 301.591 68.3125C299.792 68.4072 298.281 68.2225 297.06 67.7585C295.838 67.285 294.92 66.5417 294.304 65.5284C293.688 64.5152 293.39 63.2462 293.409 61.7216V40.9545ZM318.477 68.3977C316.109 68.3977 314.083 67.929 312.397 66.9915C310.711 66.0445 309.419 64.7282 308.519 63.0426C307.62 61.3475 307.17 59.3826 307.17 57.1477C307.17 54.9129 307.62 52.9527 308.519 51.267C309.419 49.572 310.711 48.2557 312.397 47.3182C314.083 46.3712 316.109 45.8977 318.477 45.8977C320.844 45.8977 322.871 46.3712 324.556 47.3182C326.242 48.2557 327.534 49.572 328.434 51.267C329.334 52.9527 329.783 54.9129 329.783 57.1477C329.783 59.3826 329.334 61.3475 328.434 63.0426C327.534 64.7282 326.242 66.0445 324.556 66.9915C322.871 67.929 320.844 68.3977 318.477 68.3977ZM318.533 62.6023C319.196 62.6023 319.769 62.3797 320.252 61.9347C320.735 61.4896 321.109 60.8551 321.374 60.0312C321.639 59.2074 321.772 58.2273 321.772 57.0909C321.772 55.9451 321.639 54.965 321.374 54.1506C321.109 53.3267 320.735 52.6922 320.252 52.2472C319.769 51.8021 319.196 51.5795 318.533 51.5795C317.833 51.5795 317.231 51.8021 316.729 52.2472C316.228 52.6922 315.844 53.3267 315.579 54.1506C315.314 54.965 315.181 55.9451 315.181 57.0909C315.181 58.2273 315.314 59.2074 315.579 60.0312C315.844 60.8551 316.228 61.4896 316.729 61.9347C317.231 62.3797 317.833 62.6023 318.533 62.6023Z" fill="#FF0000"/>
<path d="M340.863 68.2841C339.31 68.2841 337.88 67.8769 336.573 67.0625C335.276 66.2481 334.234 65.0123 333.448 63.3551C332.672 61.6979 332.283 59.6098 332.283 57.0909C332.283 54.4583 332.691 52.3182 333.505 50.6705C334.329 49.0227 335.389 47.8153 336.687 47.0483C337.994 46.2812 339.367 45.8977 340.806 45.8977C341.886 45.8977 342.833 46.0871 343.647 46.4659C344.461 46.8352 345.143 47.3324 345.692 47.9574C346.242 48.5729 346.658 49.25 346.942 49.9886H347.056V38.9091H354.897V68H347.113V64.4205H346.942C346.639 65.1591 346.204 65.822 345.636 66.4091C345.077 66.9867 344.395 67.446 343.59 67.7869C342.795 68.1184 341.886 68.2841 340.863 68.2841ZM343.761 62.2614C344.48 62.2614 345.096 62.053 345.607 61.6364C346.128 61.2102 346.526 60.6136 346.8 59.8466C347.085 59.0701 347.227 58.1515 347.227 57.0909C347.227 56.0114 347.085 55.0881 346.8 54.321C346.526 53.5445 346.128 52.9527 345.607 52.5455C345.096 52.1288 344.48 51.9205 343.761 51.9205C343.041 51.9205 342.425 52.1288 341.914 52.5455C341.412 52.9527 341.024 53.5445 340.749 54.321C340.484 55.0881 340.352 56.0114 340.352 57.0909C340.352 58.1705 340.484 59.0985 340.749 59.875C341.024 60.642 341.412 61.2339 341.914 61.6506C342.425 62.0578 343.041 62.2614 343.761 62.2614ZM369.258 68.3977C366.89 68.3977 364.864 67.929 363.178 66.9915C361.493 66.0445 360.2 64.7282 359.3 63.0426C358.401 61.3475 357.951 59.3826 357.951 57.1477C357.951 54.9129 358.401 52.9527 359.3 51.267C360.2 49.572 361.493 48.2557 363.178 47.3182C364.864 46.3712 366.89 45.8977 369.258 45.8977C371.625 45.8977 373.652 46.3712 375.337 47.3182C377.023 48.2557 378.316 49.572 379.215 51.267C380.115 52.9527 380.565 54.9129 380.565 57.1477C380.565 59.3826 380.115 61.3475 379.215 63.0426C378.316 64.7282 377.023 66.0445 375.337 66.9915C373.652 67.929 371.625 68.3977 369.258 68.3977ZM369.315 62.6023C369.978 62.6023 370.55 62.3797 371.033 61.9347C371.516 61.4896 371.89 60.8551 372.156 60.0312C372.421 59.2074 372.553 58.2273 372.553 57.0909C372.553 55.9451 372.421 54.965 372.156 54.1506C371.89 53.3267 371.516 52.6922 371.033 52.2472C370.55 51.8021 369.978 51.5795 369.315 51.5795C368.614 51.5795 368.013 51.8021 367.511 52.2472C367.009 52.6922 366.625 53.3267 366.36 54.1506C366.095 54.965 365.962 55.9451 365.962 57.0909C365.962 58.2273 366.095 59.2074 366.36 60.0312C366.625 60.8551 367.009 61.4896 367.511 61.9347C368.013 62.3797 368.614 62.6023 369.315 62.6023Z" fill="#313950"/>
<g clip-path="url(#clip0_1_394)">
<path d="M91.1535 48.0675L88.6879 49.7688L88.2107 33.2863L74.6382 31.947V16.2442H68.1695V1.74065H46.9983V18.2641L28.9816 19.4502L29.3732 23.8737L30.9267 41.5076L45.8215 40.3771V54.1697L33.6622 42.9731L28.0589 48.5C26.8256 44.6083 25.4892 39.0935 24.4509 34.3054C23.7955 31.2961 23.2371 28.5391 22.8455 26.5375C22.4529 24.536 22.2306 23.3089 22.2288 23.3046L21.5752 19.7252H0.88208L1.13437 24.3114C1.78539 35.8309 5.72412 49.2214 9.45466 59.9412C13.1949 70.6365 19.4563 83.0002 19.9838 83.0002C21.5655 82.9331 34.5699 71.4641 38.5783 67.4758C42.5629 63.504 45.7774 60.1509 45.7915 60.1361L45.8215 60.1048V82.9636H68.1695V54.9416C68.8408 62.9888 69.8173 70.3546 69.8209 70.412L70.1111 72.6277L82.6436 77.9275L104.498 60.217L91.1535 48.0675Z" fill="black"/>
<path d="M90.2714 46.3269L87.8059 48.0283L87.3286 31.5457L73.7561 30.2064V14.5037H67.2874V8.46311e-05H46.1162V16.5235L28.0995 17.7097L28.4912 22.1331L30.0446 39.767L44.9394 38.6365V52.4291L32.7801 41.2325L27.1768 46.7594C25.9436 42.8677 24.6071 37.3529 23.5689 32.5648C22.9134 29.5555 22.355 26.7985 21.9634 24.797C21.5708 22.7954 21.3485 21.5683 21.3468 21.564L20.6931 17.9847H0L0.252293 22.5709C0.903308 34.0904 4.84204 47.4809 8.57258 58.2006C12.3128 68.896 18.5742 81.2596 19.1017 81.2596C20.6834 81.1926 33.6878 69.7236 37.6962 65.7352C41.6808 61.7634 44.8953 58.4103 44.9094 58.3955L44.9394 58.3642V81.223H67.2874V53.201C67.9587 61.2482 68.9353 68.614 68.9388 68.6714L69.229 70.8871L81.7615 76.1869L103.615 58.4765L90.2714 46.3269Z" fill="#FFFDAE"/>
<path d="M4.65649 22.336H17.0064C17.0064 22.336 22.2992 51.344 25.8277 54.2454L32.8848 47.2834L41.7061 55.4055C41.7061 55.4055 21.1233 76.8719 19.9465 75.1314C19.9465 75.1314 5.83238 43.8024 4.65649 22.336Z" fill="#FF0000"/>
<path d="M32.885 21.756L50.5277 20.5959V3.48073H63.7597V19.7257H69.3463V31.6185H62.8776V76.8714H49.3518V33.0692L33.1788 34.2292L32.885 21.756Z" fill="#FF0000"/>
<path d="M71.6987 33.9394L83.4602 35.0994L84.0486 55.4058L89.9298 51.3444L97.5743 58.3064L81.1084 71.6499L72.8746 68.1689C72.8746 68.1689 68.7586 36.8399 71.6987 33.9394" fill="#FF0000"/>
<path d="M278.755 6.11357L277.099 7.00384C275.908 7.69743 275.544 8.28311 275.083 8.85399C274.312 9.92178 273.683 11.121 272.958 12.6152C270.498 17.7653 267.374 26.2346 264.789 33.5577C262.217 40.8609 260.232 46.9317 260.226 46.95L259.053 50.5302L258.056 53.3054L246.378 44.4968L243.652 46.997C243.652 46.997 243.548 47.091 243.297 47.3112C242.424 48.0778 240.016 50.1029 237.303 51.8356C234.639 53.6144 231.469 54.8728 230.324 54.7709C229.915 54.7657 229.848 54.7004 229.841 54.7022C229.843 54.6909 229.743 54.6874 229.5 54.1844C227.06 48.8532 222.589 45.9092 218.701 44.5081C216.881 43.8432 215.15 43.4533 213.644 43.2253C214.082 40.3004 214.738 36.5218 215.38 33.0887C216.436 27.3642 217.457 22.3289 217.459 22.3185L218.294 18.1987L199.713 13.8588L198.097 16.7524C196.468 19.753 195.438 23.7187 194.374 28.5251C193.487 32.6579 192.691 37.3216 192.009 41.8634C191.329 40.7956 190.562 39.8061 189.733 38.9098C188.95 38.0613 188.117 37.2824 187.255 36.5566L190.851 37.2319L191.073 33.2627C191.188 31.0671 192.059 25.7864 192.898 21.2925C193.735 16.7628 194.536 12.8867 194.538 12.8772L195.23 9.51799L177.01 5.57315L175.82 8.11166C175.116 9.67811 174.708 11.4961 174.225 13.7848C173.84 15.6733 173.473 17.8028 173.143 19.8896V11.3133H164.982L164.983 5.004H145.137V12.0852L130.037 12.523L130.538 32.2724H138.87C136.397 33.6604 133.814 35.4862 131.572 37.9386C129.464 40.2386 127.669 43.1461 126.735 46.6089C124.937 40.0037 123.143 34.146 123.134 34.113L121.992 30.3822L102.708 36.0205L103.56 39.6138C106.647 52.6728 110.176 67.4679 110.176 67.4696L111.066 71.2056L127.523 67.7281C128.189 68.8716 129.017 69.9524 130.046 70.9306C133.686 74.3933 138.931 76.2678 146.144 77.199C147.115 77.3226 148.053 77.3826 148.967 77.3826C149.018 77.3835 149.067 77.3835 149.116 77.3835C153.918 77.3835 158.052 75.4855 160.866 72.6763C165.157 68.406 166.893 62.7006 167.853 57.5897C168.387 54.643 168.62 51.8338 168.724 49.5451C170.361 49.8993 171.342 50.3953 171.83 50.7948C172.605 51.4675 172.751 51.846 172.817 53.06C172.855 54.6047 171.972 57.0858 170.925 58.9925C170.415 59.9533 169.891 60.7844 169.506 61.3587C169.315 61.6468 169.156 61.8696 169.052 62.0131C169.001 62.0854 168.963 62.1376 168.939 62.1681L168.92 62.1915L166.379 65.5028L182.353 77.3226L184.898 74.2854C186.933 71.8574 188.631 69.5217 190.03 67.2651L204.103 71.431L205.966 69.1779L205.983 69.1579C206.147 68.9586 207.284 67.6654 208.644 66.5698C209.316 66.0233 210.041 65.5298 210.629 65.2392C211.009 65.0451 211.316 64.952 211.489 64.9128C211.568 65.012 211.692 65.1913 211.835 65.4724L212.003 65.8031L212.229 66.1068C217.147 72.8443 223.878 75.864 230.19 75.864C230.278 75.864 230.366 75.8632 230.455 75.8623C238.609 75.8005 245.742 71.8339 251.036 68.1649C251.845 67.5949 252.604 67.031 253.321 66.4784L252.432 68.9508L273.376 77.8064L282.328 54.0173L282.329 54.0138C282.373 53.7876 282.662 52.7911 283.079 51.5301C284.556 47.0231 287.716 38.3459 290.488 30.8617C293.262 23.3697 295.652 17.0465 295.657 17.0317L297 13.475L278.755 6.11357Z" fill="black"/>
<path d="M276.99 4.37316L275.335 5.26342C274.144 5.95701 273.78 6.54269 273.319 7.11357C272.547 8.18137 271.918 9.38057 271.194 10.8748C268.734 16.0249 265.609 24.4942 263.025 31.8173C260.452 39.1205 258.467 45.1913 258.461 45.2096L257.289 48.7898L256.291 51.565L244.614 42.7564L241.888 45.2566C241.888 45.2566 241.784 45.3506 241.533 45.5707C240.66 46.3374 238.252 48.3625 235.538 50.0952C232.875 51.874 229.705 53.1323 228.56 53.0305C228.15 53.0253 228.084 52.96 228.077 52.9618C228.079 52.9505 227.978 52.947 227.736 52.444C225.296 47.1128 220.824 44.1688 216.937 42.7677C215.117 42.1028 213.386 41.7129 211.879 41.4849C212.318 38.56 212.973 34.7814 213.615 31.3483C214.671 25.6238 215.693 20.5885 215.695 20.5781L216.53 16.4583L197.949 12.1184L196.333 15.0119C194.703 18.0126 193.674 21.9783 192.61 26.7847C191.723 30.9175 190.927 35.5812 190.245 40.123C189.565 39.0552 188.797 38.0657 187.968 37.1685C187.186 36.3209 186.353 35.542 185.49 34.8162L189.087 35.4915L189.309 31.5223C189.424 29.3267 190.294 24.046 191.133 19.552C191.97 15.0224 192.771 11.1463 192.773 11.1367L193.466 7.77757L175.246 3.83273L174.056 6.37124C173.351 7.93769 172.944 9.75565 172.46 12.0444C172.076 13.9328 171.709 16.0623 171.379 18.1492V9.57289H163.217L163.219 3.26359H143.373V10.3448L128.272 10.7825L128.773 30.532H137.106C134.633 31.92 132.05 33.7458 129.807 36.1982C127.7 38.4982 125.905 41.4057 124.971 44.8685C123.173 38.2633 121.378 32.4056 121.37 32.3725L120.227 28.6418L100.944 34.2801L101.795 37.8734C104.883 50.9323 108.411 65.7274 108.411 65.7292L109.302 69.4652L125.758 65.9877C126.424 67.1312 127.253 68.212 128.281 69.1902C131.922 72.6529 137.167 74.5274 144.379 75.4586C145.35 75.5821 146.289 75.6422 147.203 75.6422C147.253 75.6431 147.303 75.6431 147.352 75.6431C152.153 75.6431 156.287 73.7451 159.102 70.9359C163.393 66.6656 165.129 60.9602 166.089 55.8493C166.622 52.9026 166.855 50.0934 166.959 47.8047C168.596 48.1589 169.577 48.6549 170.065 49.0543C170.841 49.727 170.987 50.1056 171.052 51.3196C171.09 52.8643 170.207 55.3454 169.161 57.2521C168.65 58.2128 168.126 59.0439 167.742 59.6183C167.55 59.9064 167.391 60.1291 167.287 60.2727C167.236 60.345 167.198 60.3972 167.174 60.4276L167.156 60.4511L164.615 63.7624L180.589 75.5821L183.134 72.545C185.168 70.117 186.866 67.7812 188.265 65.5247L202.339 69.6906L204.202 67.4375L204.219 67.4175C204.383 67.2182 205.52 65.925 206.879 64.8294C207.552 64.2828 208.277 63.7894 208.864 63.4987C209.244 63.3047 209.551 63.2116 209.724 63.1724C209.804 63.2716 209.928 63.4509 210.071 63.732L210.239 64.0627L210.464 64.3664C215.382 71.1038 222.114 74.1236 228.425 74.1236C228.514 74.1236 228.602 74.1227 228.69 74.1219C236.845 74.0601 243.977 70.0935 249.272 66.4245C250.081 65.8545 250.84 65.2906 251.557 64.738L250.668 67.2104L271.611 76.066L280.563 52.2769L280.565 52.2734C280.609 52.0471 280.897 51.0507 281.315 49.7897C282.791 45.2827 285.951 36.6054 288.724 29.1213C291.498 21.6293 293.888 15.3061 293.892 15.2913L295.236 11.7346L276.99 4.37316Z" fill="#FFFDAE"/>
<path d="M105.661 36.9853L117.57 33.5043C117.57 33.5043 124.627 56.5659 124.627 62.2225L112.277 64.8333C112.277 64.8333 108.748 50.039 105.661 36.9853Z" fill="#FF0000"/>
<path d="M176.379 6.96171L188.434 9.57246C188.434 9.57246 185.2 25.2369 184.906 30.4584L172.556 28.1375C172.556 28.1375 174.615 10.7325 176.379 6.96171Z" fill="#FF0000"/>
<path d="M200.197 17.1142L211.371 19.725C211.371 19.725 207.255 40.0305 206.96 45.5427C206.96 45.5427 219.31 44.6724 223.72 54.2452C228.131 63.8179 244.892 48.4432 244.892 48.4432L254.889 55.9857C254.889 55.9857 229.602 82.6727 214.017 61.7867C209.9 53.6647 200.785 64.6881 200.785 64.6881L191.964 62.0774C191.964 62.0774 195.492 25.5269 200.197 17.1142" fill="#FF0000"/>
<path d="M260.77 52.2146L274.002 57.4361C274.002 57.4361 269.297 69.0392 269.003 71.6499L254.595 65.5582C254.595 65.5582 259.006 53.9551 260.77 52.2146Z" fill="#FF0000"/>
<path d="M277.236 8.70222L290.174 13.9237C290.174 13.9237 277.237 48.1532 276.649 51.6342L262.24 46.4127C262.24 46.4127 274.001 10.4427 277.236 8.70222Z" fill="#FF0000"/>
<path d="M162.852 43.2225C185.199 43.803 170.498 62.9484 170.498 62.9484L179.908 69.9104C208.136 36.2614 162.118 29.3707 162.118 29.3707V25.6722H167.19V13.7063H161.998C161.749 15.3467 148.313 44.6723 153.15 44.6723C161.787 42.9684 155.502 48.1533 155.502 48.1533C155.502 48.1533 152.635 51.7797 154.914 57.4363C157.266 73.6812 131.39 67.009 132.272 58.3065C133.543 45.7741 141.094 51.3445 141.681 43.2225C142.27 35.1005 149.768 37.8557 149.768 37.8557L159.377 13.7063H159.03V7.39696H147.562V14.3589L132.566 14.7941L132.86 26.398H149.327L148.738 30.4586C148.738 30.4586 131.243 33.9404 128.744 47.1386C126.244 60.3368 126.685 69.0393 144.916 71.3603C163.147 73.6812 162.852 48.444 162.852 43.2225Z" fill="#FF0000"/>
</g>
<defs>
<clipPath id="clip0_1_394">
<rect width="297" height="83" fill="white"/>
</clipPath>
</defs>
</svg>
